<svg width="1em" height="1em" xmlns="http://www.w3.org/2000/svg" fill="currentColor" focusable="false" viewBox="0 0 200 200">
  <path d="m39.5034,156.4812c0,0 39.40585,14.22113 69.252,-9.75863c17.28517,-13.82889 11.11591,-29.27609 0.44472,-33.83666c0,0 24.84394,-8.72888 29.62389,19.51726c4.33523,25.64721 -46.35321,41.73172 -37.84964,65.95694c0,0 -23.78802,-4.11919 -21.17568,-22.31252c-0.05556,0.04913 -27.51184,1.96163 -40.29508,-19.56639l-0.0002,0z" />
  <path d="m126.37415,174.77259c0,0 33.34772,-23.29334 24.34386,-58.01255c-5.1689,-20.00777 -23.45443,-22.85196 -33.18102,-16.8692c0,0 3.55713,-23.3914 33.79223,-13.19139c27.51184,9.26832 18.50799,56.10005 46.63124,61.44531c0,0 -15.78453,16.28083 -32.40292,5.34526c0,0 -11.56062,22.06726 -39.18359,21.28277l0.0002,-0.0002z" />
  <path d="m187.12238,116.95617c0,0 -6.66954,-37.07309 -45.35285,-47.12611c-22.34294,-5.83557 -34.12582,6.81638 -32.95856,17.21251c0,0 -21.34258,-14.27027 3.55713,-32.51253c22.5652,-16.57501 64.47225,13.28945 83.53588,-5.68837c0,0 8.28131,20.10583 -10.61562,27.55972c0,0.04913 16.11811,19.71359 1.83403,40.55498l0,-0.0002z" />
  <path d="m159.833,41.92703c0,0 -39.90613,-13.0442 -68.80728,11.72026c-16.72932,14.3192 -10.05998,29.61921 0.7781,33.83666c0,0 -24.51056,9.41532 -30.29087,-18.68364c-5.33559,-25.54915 44.74144,-43.05585 35.34844,-67.03562c0,0 23.95471,3.48169 22.00955,21.67502c-0.05556,0 27.34515,-2.69719 40.96206,18.48752l0,-0.0002z" />
  <path d="m72.29527,26.08758c0,0 -32.45848,24.27415 -22.17625,58.69918c5.947,19.86058 24.34386,22.21446 33.79223,15.93751c0,0 -2.72346,23.48946 -33.34772,14.1722c-27.78966,-8.4347 -20.56447,-55.56061 -48.79885,-60.07224c0,0 15.11755,-16.67308 32.18046,-6.27694c-0.05556,0 10.72675,-22.36165 38.34972,-22.45971l0.0004,0z" />
  <path d="m13.71446,85.66951c0,0 8.05906,36.87697 47.07575,45.85111c22.5652,5.14914 33.8478,-7.84613 32.34715,-18.19333c0,0 21.84266,13.58363 -2.33431,32.61059c-22.00955,17.16358 -64.97233,-11.52414 -83.36919,8.04225c0,0 -9.05942,-19.86058 9.5597,-27.80477c0.05556,-0.04913 -16.72932,-19.27221 -3.27911,-40.50585z" />
</svg>